<svg width="736" height="408" viewBox="0 0 736 408" fill="none" xmlns="http://www.w3.org/2000/svg">
<path d="M685.657 368.984H673.926V396.565H667.557V368.984H655.826V362.93H685.657V368.984Z" fill="#272727"/>
<path d="M636.114 397.236C632.807 397.236 629.791 396.474 627.065 394.949C624.339 393.379 622.193 391.272 620.629 388.626C619.065 385.935 618.283 382.975 618.283 379.746C618.283 376.517 619.065 373.58 620.629 370.934C622.193 368.243 624.339 366.135 627.065 364.61C629.791 363.041 632.807 362.256 636.114 362.256C639.377 362.256 642.349 363.041 645.03 364.61C647.756 366.135 649.901 368.243 651.465 370.934C653.029 373.58 653.812 376.517 653.812 379.746C653.812 382.975 653.029 385.935 651.465 388.626C649.901 391.272 647.756 393.379 645.03 394.949C642.349 396.474 639.377 397.236 636.114 397.236ZM636.114 391.317C638.17 391.317 640.047 390.823 641.745 389.837C643.443 388.805 644.784 387.415 645.767 385.666C646.75 383.872 647.242 381.899 647.242 379.746C647.242 377.593 646.75 375.643 645.767 373.894C644.784 372.1 643.443 370.71 641.745 369.723C640.047 368.691 638.17 368.176 636.114 368.176C634.014 368.176 632.092 368.691 630.349 369.723C628.651 370.71 627.31 372.1 626.327 373.894C625.344 375.643 624.852 377.593 624.852 379.746C624.852 381.899 625.344 383.872 626.327 385.666C627.31 387.415 628.651 388.805 630.349 389.837C632.092 390.823 634.014 391.317 636.114 391.317Z" fill="#272727"/>
<path d="M610.545 396.632H604.177V368.984H589.831V375.106C589.831 379.904 589.563 383.828 589.027 386.878C588.535 389.928 587.485 392.372 585.876 394.21C584.268 396.004 581.877 396.901 578.704 396.901C577.855 396.901 576.938 396.789 575.955 396.565V390.645C576.76 390.78 577.475 390.847 578.1 390.847C579.53 390.847 580.603 390.398 581.318 389.502C582.078 388.605 582.614 387.013 582.927 384.725C583.24 382.393 583.396 378.985 583.396 374.5V362.93H610.545V396.632Z" fill="#272727"/>
<path d="M540.513 379.746C540.513 376.517 541.295 373.58 542.86 370.934C544.424 368.243 546.569 366.135 549.295 364.61C552.021 363.041 555.037 362.256 558.345 362.256C562.054 362.256 565.383 363.355 568.333 365.552C571.327 367.705 573.293 370.53 574.232 374.028H567.26C566.5 372.234 565.271 370.822 563.573 369.79C561.92 368.714 560.065 368.176 558.009 368.176C555.909 368.176 554.032 368.691 552.378 369.723C550.725 370.71 549.429 372.1 548.49 373.894C547.552 375.643 547.083 377.593 547.083 379.746C547.083 381.899 547.552 383.872 548.49 385.666C549.429 387.415 550.725 388.805 552.378 389.837C554.032 390.823 555.909 391.317 558.009 391.317C560.065 391.317 561.92 390.801 563.573 389.769C565.271 388.693 566.5 387.258 567.26 385.464H574.232C573.293 388.962 571.327 391.81 568.333 394.007C565.383 396.16 562.054 397.236 558.345 397.236C555.037 397.236 552.021 396.474 549.295 394.949C546.569 393.379 544.424 391.272 542.86 388.626C541.295 385.935 540.513 382.975 540.513 379.746Z" fill="#272727"/>
<path d="M501.96 362.93H508.329V387.954L525.758 362.93H532.796V396.565H526.428V371.54L508.999 396.565H501.96V362.93Z" fill="#272727"/>
<path d="M475.443 380.958L470.684 385.398V396.565H464.45V362.93H470.684V377.998L486.437 362.93H494.883L480.203 376.518L496.291 396.565H487.778L475.443 380.958Z" fill="#272727"/>
<path d="M431.721 396.565L422.001 383.851L412.214 396.565H404.505L417.912 379.478L405.041 362.93H412.951L422.135 374.971L431.118 362.93H439.028L426.224 379.276L439.631 396.565H431.721Z" fill="#272727"/>
<path d="M374.824 376.249C378.355 376.249 381.103 377.214 383.069 379.142C385.08 381.026 386.086 383.447 386.086 386.407C386.086 389.367 385.08 391.811 383.069 393.74C381.103 395.623 378.355 396.565 374.824 396.565H358.267V362.93H364.635V376.249H374.824ZM373.953 390.981C375.785 390.981 377.17 390.6 378.109 389.838C379.047 389.075 379.517 387.932 379.517 386.407C379.517 384.882 379.047 383.739 378.109 382.976C377.17 382.214 375.785 381.833 373.953 381.833H364.635V390.981H373.953ZM398.487 362.93V396.565H392.119V362.93H398.487Z" fill="#272727"/>
<path d="M347.518 362.93V396.565H341.15V382.775H323.721V396.565H317.353V362.93H323.721V376.72H341.15V362.93H347.518Z" fill="#272727"/>
<path d="M293.809 362.256C296.759 362.256 299.44 363.018 301.853 364.543C304.266 366.023 306.166 368.086 307.551 370.732C308.936 373.378 309.629 376.383 309.629 379.746C309.629 383.11 308.936 386.114 307.551 388.76C306.166 391.406 304.266 393.492 301.853 395.016C299.44 396.496 296.759 397.236 293.809 397.236C291.574 397.236 289.474 396.743 287.508 395.756C285.541 394.725 283.866 393.312 282.48 391.518V407.999H276.112V362.929H282.145V368.377C283.575 366.449 285.296 364.947 287.307 363.87C289.318 362.794 291.485 362.256 293.809 362.256ZM292.736 391.317C294.703 391.317 296.468 390.823 298.032 389.837C299.596 388.85 300.825 387.482 301.719 385.733C302.613 383.939 303.06 381.944 303.06 379.746C303.06 377.549 302.613 375.575 301.719 373.826C300.825 372.032 299.596 370.642 298.032 369.656C296.468 368.669 294.703 368.176 292.736 368.176C290.77 368.176 288.982 368.669 287.374 369.656C285.765 370.642 284.514 372.032 283.62 373.826C282.726 375.575 282.279 377.549 282.279 379.746C282.279 381.944 282.726 383.939 283.62 385.733C284.514 387.482 285.765 388.85 287.374 389.837C288.982 390.823 290.77 391.317 292.736 391.317Z" fill="#272727"/>
<path d="M250.732 397.236C247.425 397.236 244.408 396.474 241.682 394.949C238.956 393.379 236.811 391.272 235.247 388.626C233.682 385.935 232.9 382.975 232.9 379.746C232.9 376.517 233.682 373.58 235.247 370.934C236.811 368.243 238.956 366.135 241.682 364.61C244.408 363.041 247.425 362.256 250.732 362.256C253.994 362.256 256.966 363.041 259.647 364.61C262.373 366.135 264.518 368.243 266.083 370.934C267.647 373.58 268.429 376.517 268.429 379.746C268.429 382.975 267.647 385.935 266.083 388.626C264.518 391.272 262.373 393.379 259.647 394.949C256.966 396.474 253.994 397.236 250.732 397.236ZM250.732 391.317C252.787 391.317 254.664 390.823 256.362 389.837C258.061 388.805 259.401 387.415 260.385 385.666C261.368 383.872 261.859 381.899 261.859 379.746C261.859 377.593 261.368 375.643 260.385 373.894C259.401 372.1 258.061 370.71 256.362 369.723C254.664 368.691 252.787 368.176 250.732 368.176C248.631 368.176 246.71 368.691 244.967 369.723C243.268 370.71 241.928 372.1 240.945 373.894C239.961 375.643 239.47 377.593 239.47 379.746C239.47 381.899 239.961 383.872 240.945 385.666C241.928 387.415 243.268 388.805 244.967 389.837C246.71 390.823 248.631 391.317 250.732 391.317Z" fill="#272727"/>
<path d="M210.389 362.929C213.607 362.929 216.556 363.669 219.238 365.149C221.919 366.629 224.02 368.67 225.539 371.271C227.103 373.827 227.885 376.652 227.885 379.747C227.885 382.841 227.103 385.689 225.539 388.29C224.02 390.846 221.919 392.864 219.238 394.344C216.556 395.824 213.607 396.564 210.389 396.564H206.769V408H200.401V396.564H196.915C193.653 396.564 190.681 395.824 188 394.344C185.318 392.864 183.196 390.846 181.631 388.29C180.067 385.689 179.285 382.841 179.285 379.747C179.285 376.652 180.067 373.827 181.631 371.271C183.196 368.67 185.318 366.629 188 365.149C190.681 363.669 193.653 362.929 196.915 362.929H200.401V349.139H206.769V362.929H210.389ZM200.401 390.644V368.849H197.116C195.016 368.849 193.094 369.342 191.351 370.329C189.653 371.271 188.313 372.571 187.329 374.231C186.346 375.89 185.855 377.729 185.855 379.747C185.855 381.765 186.346 383.603 187.329 385.263C188.313 386.922 189.653 388.245 191.351 389.232C193.094 390.173 195.016 390.644 197.116 390.644H200.401ZM210.188 390.644C212.244 390.644 214.121 390.173 215.819 389.232C217.517 388.245 218.858 386.922 219.841 385.263C220.824 383.603 221.316 381.765 221.316 379.747C221.316 377.729 220.824 375.89 219.841 374.231C218.858 372.571 217.517 371.271 215.819 370.329C214.121 369.342 212.244 368.849 210.188 368.849H206.769V390.644H210.188Z" fill="#272727"/>
<path d="M141.186 379.746C141.186 376.517 141.968 373.58 143.532 370.934C145.096 368.243 147.241 366.135 149.967 364.61C152.693 363.041 155.71 362.256 159.017 362.256C162.726 362.256 166.056 363.355 169.005 365.552C171.999 367.705 173.966 370.53 174.904 374.028H167.932C167.173 372.234 165.944 370.822 164.246 369.79C162.592 368.714 160.737 368.176 158.682 368.176C156.581 368.176 154.704 368.691 153.051 369.723C151.397 370.71 150.101 372.1 149.163 373.894C148.224 375.643 147.755 377.593 147.755 379.746C147.755 381.899 148.224 383.872 149.163 385.666C150.101 387.415 151.397 388.805 153.051 389.837C154.704 390.823 156.581 391.317 158.682 391.317C160.737 391.317 162.592 390.801 164.246 389.769C165.944 388.693 167.173 387.258 167.932 385.464H174.904C173.966 388.962 171.999 391.81 169.005 394.007C166.056 396.16 162.726 397.236 159.017 397.236C155.71 397.236 152.693 396.474 149.967 394.949C147.241 393.379 145.096 391.272 143.532 388.626C141.968 385.935 141.186 382.975 141.186 379.746Z" fill="#272727"/>
<path d="M118.496 397.236C115.189 397.236 112.172 396.474 109.446 394.949C106.72 393.379 104.575 391.272 103.011 388.626C101.447 385.935 100.665 382.975 100.665 379.746C100.665 376.517 101.447 373.58 103.011 370.934C104.575 368.243 106.72 366.135 109.446 364.61C112.172 363.041 115.189 362.256 118.496 362.256C121.758 362.256 124.73 363.041 127.411 364.61C130.137 366.135 132.283 368.243 133.847 370.934C135.411 373.58 136.193 376.517 136.193 379.746C136.193 382.975 135.411 385.935 133.847 388.626C132.283 391.272 130.137 393.379 127.411 394.949C124.73 396.474 121.758 397.236 118.496 397.236ZM118.496 391.317C120.552 391.317 122.428 390.823 124.127 389.837C125.825 388.805 127.166 387.415 128.149 385.666C129.132 383.872 129.624 381.899 129.624 379.746C129.624 377.593 129.132 375.643 128.149 373.894C127.166 372.1 125.825 370.71 124.127 369.723C122.428 368.691 120.552 368.176 118.496 368.176C116.395 368.176 114.474 368.691 112.731 369.723C111.033 370.71 109.692 372.1 108.709 373.894C107.726 375.643 107.234 377.593 107.234 379.746C107.234 381.899 107.726 383.872 108.709 385.666C109.692 387.415 111.033 388.805 112.731 389.837C114.474 390.823 116.395 391.317 118.496 391.317Z" fill="#272727"/>
<path d="M78.1535 362.929C81.3711 362.929 84.3206 363.669 87.002 365.149C89.6834 366.629 91.7838 368.67 93.3033 371.271C94.8674 373.827 95.6495 376.652 95.6495 379.747C95.6495 382.841 94.8674 385.689 93.3033 388.29C91.7838 390.846 89.6834 392.864 87.002 394.344C84.3206 395.824 81.3711 396.564 78.1535 396.564H74.5336V408H68.1653V396.564H64.6795C61.4172 396.564 58.4453 395.824 55.7639 394.344C53.0825 392.864 50.9598 390.846 49.3956 388.29C47.8315 385.689 47.0494 382.841 47.0494 379.747C47.0494 376.652 47.8315 373.827 49.3956 371.271C50.9598 368.67 53.0825 366.629 55.7639 365.149C58.4453 363.669 61.4172 362.929 64.6795 362.929H68.1653V349.139H74.5336V362.929H78.1535ZM68.1653 390.644V368.849H64.8806C62.7802 368.849 60.8586 369.342 59.1157 370.329C57.4174 371.271 56.0768 372.571 55.0936 374.231C54.1104 375.89 53.6188 377.729 53.6188 379.747C53.6188 381.765 54.1104 383.603 55.0936 385.263C56.0768 386.922 57.4174 388.245 59.1157 389.232C60.8586 390.173 62.7802 390.644 64.8806 390.644H68.1653ZM77.9524 390.644C80.0081 390.644 81.8851 390.173 83.5833 389.232C85.2815 388.245 86.6222 386.922 87.6053 385.263C88.5885 383.603 89.0801 381.765 89.0801 379.747C89.0801 377.729 88.5885 375.89 87.6053 374.231C86.6222 372.571 85.2815 371.271 83.5833 370.329C81.8851 369.342 80.0081 368.849 77.9524 368.849H74.5336V390.644H77.9524Z" fill="#272727"/>
<path d="M736 316.035V329.489H729.833V322.089H704.226V329.489H698.058V316.035H702.349C703.287 313.344 703.756 308.187 703.756 300.563V288.454H731.308V316.035H736ZM724.939 316.169V294.374H710.125V300.361C710.125 307.088 709.611 312.357 708.583 316.169H724.939Z" fill="#272727"/>
<path d="M677.355 322.76C674.048 322.76 671.032 321.998 668.306 320.473C665.58 318.904 663.435 316.796 661.87 314.15C660.306 311.459 659.524 308.499 659.524 305.27C659.524 302.041 660.306 299.104 661.87 296.458C663.435 293.767 665.58 291.659 668.306 290.135C671.032 288.565 674.048 287.78 677.355 287.78C680.618 287.78 683.59 288.565 686.271 290.135C688.997 291.659 691.142 293.767 692.706 296.458C694.27 299.104 695.052 302.041 695.052 305.27C695.052 308.499 694.27 311.459 692.706 314.15C691.142 316.796 688.997 318.904 686.271 320.473C683.59 321.998 680.618 322.76 677.355 322.76ZM677.355 316.841C679.411 316.841 681.288 316.347 682.986 315.361C684.684 314.329 686.025 312.939 687.008 311.19C687.991 309.396 688.483 307.423 688.483 305.27C688.483 303.118 687.991 301.167 687.008 299.418C686.025 297.624 684.684 296.234 682.986 295.247C681.288 294.216 679.411 293.7 677.355 293.7C675.255 293.7 673.333 294.216 671.59 295.247C669.892 296.234 668.551 297.624 667.568 299.418C666.585 301.167 666.094 303.118 666.094 305.27C666.094 307.423 666.585 309.396 667.568 311.19C668.551 312.939 669.892 314.329 671.59 315.361C673.333 316.347 675.255 316.841 677.355 316.841Z" fill="#272727"/>
<path d="M649.534 304.935C652.841 306.594 654.495 309.151 654.495 312.604C654.495 315.384 653.489 317.672 651.478 319.465C649.467 321.214 646.696 322.089 643.166 322.089H626.34V288.454H643.166C646.518 288.454 649.154 289.329 651.076 291.078C653.042 292.782 654.026 294.957 654.026 297.603C654.026 299.172 653.646 300.607 652.886 301.908C652.171 303.164 651.054 304.173 649.534 304.935ZM642.428 302.446C644.082 302.446 645.333 302.065 646.182 301.303C647.032 300.54 647.456 299.419 647.456 297.939C647.456 295.203 645.78 293.836 642.428 293.836H632.574V302.446H642.428ZM642.496 316.707C644.283 316.707 645.624 316.326 646.518 315.564C647.456 314.757 647.925 313.613 647.925 312.133C647.925 310.743 647.456 309.689 646.518 308.971C645.624 308.209 644.283 307.828 642.496 307.828H632.574V316.707H642.496Z" fill="#272727"/>
<path d="M615.599 288.453V322.088H609.231V317.042C607.845 318.836 606.169 320.249 604.203 321.28C602.237 322.267 600.136 322.76 597.902 322.76C594.952 322.76 592.271 322.02 589.858 320.54C587.444 319.016 585.545 316.93 584.16 314.284C582.774 311.638 582.082 308.634 582.082 305.27C582.082 301.907 582.774 298.902 584.16 296.256C585.545 293.61 587.444 291.547 589.858 290.067C592.271 288.542 594.952 287.78 597.902 287.78C600.226 287.78 602.393 288.318 604.404 289.395C606.415 290.471 608.136 291.973 609.566 293.902V288.453H615.599ZM598.974 316.841C600.941 316.841 602.728 316.347 604.337 315.361C605.946 314.374 607.197 313.006 608.091 311.257C608.985 309.463 609.432 307.468 609.432 305.27C609.432 303.073 608.985 301.099 608.091 299.35C607.197 297.557 605.946 296.166 604.337 295.18C602.728 294.193 600.941 293.7 598.974 293.7C597.008 293.7 595.243 294.193 593.679 295.18C592.114 296.166 590.885 297.557 589.992 299.35C589.098 301.099 588.651 303.073 588.651 305.27C588.651 307.468 589.098 309.463 589.992 311.257C590.885 313.006 592.114 314.374 593.679 315.361C595.243 316.347 597.008 316.841 598.974 316.841Z" fill="#272727"/>
<path d="M553.672 311.459C554.253 313.432 555.325 314.89 556.889 315.832C558.498 316.773 560.599 317.244 563.191 317.244C565.604 317.244 567.548 316.818 569.023 315.966C570.497 315.069 571.235 313.926 571.235 312.535C571.235 311.325 570.699 310.293 569.626 309.441C568.553 308.544 566.721 308.096 564.129 308.096H558.297V302.579H563.861C566.185 302.579 567.838 302.153 568.822 301.301C569.849 300.449 570.363 299.418 570.363 298.207C570.363 296.682 569.671 295.471 568.285 294.574C566.945 293.677 565.09 293.229 562.721 293.229C560.442 293.229 558.543 293.655 557.023 294.507C555.549 295.359 554.588 296.705 554.141 298.543H547.84C548.421 295.18 550.097 292.556 552.867 290.673C555.638 288.744 558.923 287.78 562.721 287.78C566.922 287.78 570.319 288.699 572.911 290.538C575.503 292.332 576.799 294.709 576.799 297.669C576.799 299.149 576.396 300.539 575.592 301.839C574.788 303.095 573.581 304.104 571.972 304.867C575.681 306.347 577.536 308.88 577.536 312.468C577.536 315.563 576.195 318.052 573.514 319.935C570.877 321.819 567.28 322.76 562.721 322.76C558.61 322.76 555.124 321.751 552.264 319.733C549.404 317.715 547.75 314.957 547.303 311.459H553.672Z" fill="#272727"/>
<path d="M490.633 288.454H497.002V313.478L514.431 288.454H521.469V322.089H515.101V297.065L497.672 322.089H490.633V288.454ZM506.051 285.158C502.565 285.158 499.705 284.238 497.471 282.4C495.236 280.561 493.985 278.094 493.717 275H499.214C499.437 276.704 500.152 278.05 501.359 279.036C502.565 279.978 504.13 280.449 506.051 280.449C507.973 280.449 509.537 279.978 510.744 279.036C511.95 278.05 512.665 276.704 512.889 275H518.386C518.117 278.094 516.866 280.561 514.632 282.4C512.397 284.238 509.537 285.158 506.051 285.158Z" fill="#272727"/>
<path d="M449.065 288.454H455.433V313.478L472.862 288.454H479.901V322.089H473.533V297.065L456.104 322.089H449.065V288.454Z" fill="#272727"/>
<path d="M422.548 306.482L417.789 310.922V322.089H411.555V288.454H417.789V303.522L433.542 288.454H441.988L427.308 302.043L443.396 322.089H434.883L422.548 306.482Z" fill="#272727"/>
<path d="M370.767 305.27C370.767 302.041 371.549 299.104 373.113 296.458C374.677 293.767 376.822 291.659 379.549 290.135C382.275 288.565 385.291 287.78 388.598 287.78C392.307 287.78 395.637 288.879 398.586 291.076C401.581 293.229 403.547 296.054 404.485 299.552H397.514C396.754 297.758 395.525 296.346 393.827 295.314C392.173 294.238 390.319 293.7 388.263 293.7C386.163 293.7 384.286 294.216 382.632 295.247C380.979 296.234 379.683 297.624 378.744 299.418C377.806 301.167 377.336 303.118 377.336 305.27C377.336 307.423 377.806 309.396 378.744 311.19C379.683 312.939 380.979 314.329 382.632 315.361C384.286 316.347 386.163 316.841 388.263 316.841C390.319 316.841 392.173 316.325 393.827 315.293C395.525 314.217 396.754 312.782 397.514 310.988H404.485C403.547 314.486 401.581 317.334 398.586 319.531C395.637 321.684 392.307 322.76 388.598 322.76C385.291 322.76 382.275 321.998 379.549 320.473C376.822 318.904 374.677 316.796 373.113 314.15C371.549 311.459 370.767 308.499 370.767 305.27Z" fill="#272727"/>
<path d="M367.701 316.035V329.489H361.534V322.089H335.927V329.489H329.76V316.035H334.05C334.988 313.344 335.458 308.187 335.458 300.563V288.454H363.009V316.035H367.701ZM356.641 316.169V294.374H341.826V300.361C341.826 307.088 341.312 312.357 340.284 316.169H356.641Z" fill="#272727"/>
<path d="M309.059 322.76C305.752 322.76 302.735 321.998 300.009 320.473C297.283 318.904 295.138 316.796 293.574 314.15C292.01 311.459 291.228 308.499 291.228 305.27C291.228 302.041 292.01 299.104 293.574 296.458C295.138 293.767 297.283 291.659 300.009 290.135C302.735 288.565 305.752 287.78 309.059 287.78C312.321 287.78 315.293 288.565 317.975 290.135C320.701 291.659 322.846 293.767 324.41 296.458C325.974 299.104 326.756 302.041 326.756 305.27C326.756 308.499 325.974 311.459 324.41 314.15C322.846 316.796 320.701 318.904 317.975 320.473C315.293 321.998 312.321 322.76 309.059 322.76ZM309.059 316.841C311.115 316.841 312.992 316.347 314.69 315.361C316.388 314.329 317.729 312.939 318.712 311.19C319.695 309.396 320.187 307.423 320.187 305.27C320.187 303.118 319.695 301.167 318.712 299.418C317.729 297.624 316.388 296.234 314.69 295.247C312.992 294.216 311.115 293.7 309.059 293.7C306.959 293.7 305.037 294.216 303.294 295.247C301.596 296.234 300.255 297.624 299.272 299.418C298.289 301.167 297.797 303.118 297.797 305.27C297.797 307.423 298.289 309.396 299.272 311.19C300.255 312.939 301.596 314.329 303.294 315.361C305.037 316.347 306.959 316.841 309.059 316.841Z" fill="#272727"/>
<path d="M270.372 287.78C273.321 287.78 276.003 288.542 278.416 290.067C280.829 291.547 282.729 293.61 284.114 296.256C285.499 298.902 286.192 301.907 286.192 305.27C286.192 308.634 285.499 311.638 284.114 314.284C282.729 316.93 280.829 319.016 278.416 320.54C276.003 322.02 273.321 322.76 270.372 322.76C268.137 322.76 266.037 322.267 264.071 321.28C262.104 320.249 260.428 318.836 259.043 317.042V333.524H252.675V288.453H258.708V293.902C260.138 291.973 261.859 290.471 263.87 289.395C265.881 288.318 268.048 287.78 270.372 287.78ZM269.299 316.841C271.266 316.841 273.031 316.347 274.595 315.361C276.159 314.374 277.388 313.006 278.282 311.257C279.176 309.463 279.623 307.468 279.623 305.27C279.623 303.073 279.176 301.099 278.282 299.35C277.388 297.557 276.159 296.166 274.595 295.18C273.031 294.193 271.266 293.7 269.299 293.7C267.333 293.7 265.545 294.193 263.937 295.18C262.328 296.166 261.076 297.557 260.183 299.35C259.289 301.099 258.842 303.073 258.842 305.27C258.842 307.468 259.289 309.463 260.183 311.257C261.076 313.006 262.328 314.374 263.937 315.361C265.545 316.347 267.333 316.841 269.299 316.841Z" fill="#272727"/>
<path d="M227.295 322.76C223.988 322.76 220.971 321.998 218.245 320.473C215.519 318.904 213.374 316.796 211.81 314.15C210.245 311.459 209.463 308.499 209.463 305.27C209.463 302.041 210.245 299.104 211.81 296.458C213.374 293.767 215.519 291.659 218.245 290.135C220.971 288.565 223.988 287.78 227.295 287.78C230.557 287.78 233.529 288.565 236.21 290.135C238.936 291.659 241.081 293.767 242.645 296.458C244.21 299.104 244.992 302.041 244.992 305.27C244.992 308.499 244.21 311.459 242.645 314.15C241.081 316.796 238.936 318.904 236.21 320.473C233.529 321.998 230.557 322.76 227.295 322.76ZM227.295 316.841C229.35 316.841 231.227 316.347 232.925 315.361C234.624 314.329 235.964 312.939 236.948 311.19C237.931 309.396 238.422 307.423 238.422 305.27C238.422 303.118 237.931 301.167 236.948 299.418C235.964 297.624 234.624 296.234 232.925 295.247C231.227 294.216 229.35 293.7 227.295 293.7C225.194 293.7 223.272 294.216 221.53 295.247C219.831 296.234 218.491 297.624 217.507 299.418C216.524 301.167 216.033 303.118 216.033 305.27C216.033 307.423 216.524 309.396 217.507 311.19C218.491 312.939 219.831 314.329 221.53 315.361C223.272 316.347 225.194 316.841 227.295 316.841Z" fill="#272727"/>
<path d="M207.401 294.508H190.307V322.089H183.939V288.454H207.401V294.508Z" fill="#272727"/>
<path d="M159.197 287.78C162.638 287.78 165.633 288.52 168.18 290C170.772 291.48 172.761 293.588 174.146 296.323C175.531 299.014 176.224 302.176 176.224 305.808C176.224 306.75 176.202 307.445 176.157 307.894H148.673C149.12 310.495 150.326 312.647 152.293 314.352C154.304 316.011 156.628 316.841 159.264 316.841C163.599 316.841 166.683 315.249 168.515 312.064H175.085C174.012 315.204 172.023 317.782 169.118 319.801C166.214 321.774 162.929 322.76 159.264 322.76C156.002 322.76 153.053 322.02 150.416 320.54C147.779 319.016 145.723 316.93 144.249 314.284C142.774 311.594 142.037 308.589 142.037 305.27C142.037 301.952 142.774 298.969 144.249 296.323C145.723 293.633 147.757 291.547 150.349 290.067C152.985 288.542 155.935 287.78 159.197 287.78ZM159.063 293.431C156.427 293.431 154.147 294.26 152.226 295.92C150.349 297.579 149.187 299.709 148.74 302.31H169.32C169.051 299.62 167.957 297.467 166.035 295.852C164.158 294.238 161.834 293.431 159.063 293.431Z" fill="#272727"/>
<path d="M122.095 306.617L117.939 310.653V322.089H111.638V310.653L107.482 306.617L96.086 322.089H88.1759L102.856 302.11L88.8462 288.454H96.8234L111.638 302.984V288.454H117.939V303.052L132.888 288.454H140.731L126.721 302.11L141.401 322.089H133.491L122.095 306.617Z" fill="#272727"/>
<path d="M51.6377 288.454H58.006V313.478L75.435 288.454H82.4736V322.089H76.1053V297.065L58.6764 322.089H51.6377V288.454Z" fill="#272727"/>
<path d="M40.2207 275V322.089H33.5173V301.773H6.70345V322.089H0V275H6.70345V295.316H33.5173V275H40.2207Z" fill="#272727"/>
<path d="M135.387 48.7544V196.108H101.224V135.693H34.1631V196.108H0V48.7544H34.1631V106.854H101.224V48.7544H135.387Z" fill="#272727"/>
<path d="M263.832 119.273C272.408 122.22 279.086 126.851 283.866 133.166C288.787 139.341 291.247 146.568 291.247 154.848C291.247 163.829 288.295 171.618 282.39 178.214C276.485 184.81 268.472 189.862 258.349 193.37C248.367 196.879 237.401 198.633 225.451 198.633C215.329 198.633 205.207 197.37 195.084 194.844C185.102 192.318 175.613 188.458 166.615 183.266L177.159 158.847C183.626 162.777 190.726 165.794 198.458 167.899C206.331 169.864 213.993 170.846 221.445 170.846C231.567 170.846 239.932 169.022 246.54 165.373C253.288 161.724 256.662 156.602 256.662 150.006C256.662 144.533 254.342 140.393 249.703 137.586C245.204 134.78 239.018 133.376 231.145 133.376H195.084V107.695H228.615C235.503 107.695 240.846 106.291 244.642 103.485C248.578 100.678 250.546 96.8187 250.546 91.9069C250.546 86.1531 247.735 81.6624 242.111 78.4346C236.628 75.2069 229.528 73.593 220.812 73.593C214.345 73.593 207.667 74.5052 200.778 76.3296C193.889 78.0136 187.352 80.6098 181.166 84.1182L170.833 57.5946C186.438 49.5954 203.309 45.5959 221.445 45.5959C232.973 45.5959 243.587 47.2799 253.288 50.648C262.989 54.016 270.721 58.9278 276.485 65.3833C282.249 71.8388 285.131 79.3468 285.131 87.9073C285.131 94.9242 283.233 101.169 279.437 106.642C275.642 112.115 270.44 116.325 263.832 119.273Z" fill="#272727"/>
<path d="M658.817 136.745H635.198V196.108H601.246V48.7544H635.198V108.327H659.66L698.463 48.7544H734.524L686.232 119.905L736 196.108H697.198L658.817 136.745Z" fill="#272727"/>
<path d="M377.563 16.5102C384.125 16.5102 388.947 17.8916 392.027 20.6544C395.152 23.3727 396.715 26.9599 396.715 31.4161C396.715 34.3572 395.933 37.0755 394.371 39.5709C392.853 42.0218 390.487 44.0271 387.273 45.5868C384.059 47.1019 380.063 47.8594 375.286 47.8594C371.983 47.8594 368.679 47.5029 365.376 46.7899C362.117 46.0769 359.26 45.0297 356.805 43.6483L362.162 32.0177C364.126 33.1317 366.179 33.9784 368.322 34.5577C370.51 35.137 372.63 35.4267 374.684 35.4267C376.514 35.4267 377.987 35.1147 379.103 34.4909C380.264 33.8224 380.844 32.9089 380.844 31.7503C380.844 30.6363 380.331 29.8119 379.304 29.2771C378.277 28.6978 376.425 28.4082 373.746 28.4082H360.153L362.496 0H393.634V11.898H375.487L375.152 16.5102H377.563Z" fill="#272727"/>
<path d="M348.638 0V46.7899H332.834V11.898H324.799V0H348.638Z" fill="#272727"/>
<path d="M429.085 48.7856H460.695V196.106H429.085V48.7856Z" fill="#272727"/>
<path d="M492.304 170.468C533.886 170.468 567.594 136.82 567.594 95.3129C567.594 53.8058 533.886 20.1577 492.304 20.1577V49.0896C517.878 49.0896 538.61 69.7845 538.61 95.3129C538.61 120.841 517.878 141.536 492.304 141.536V170.468Z" fill="#272727"/>
<path d="M397.474 225C355.892 225 322.183 191.352 322.183 149.845C322.183 108.338 355.892 74.6895 397.474 74.6895V103.621C371.899 103.621 351.167 124.316 351.167 149.845C351.167 175.373 371.899 196.068 397.474 196.068V225Z" fill="#272727"/>
</svg>
