<svg width="917" height="225" viewBox="0 0 917 225" fill="none" xmlns="http://www.w3.org/2000/svg">
<path d="M832.687 156.732H822.902V179.543H817.59V156.732H807.805V151.725H832.687V156.732Z" fill="#272727"/>
<path d="M791.362 180.099C788.603 180.099 786.087 179.468 783.813 178.207C781.539 176.909 779.75 175.166 778.445 172.977C777.141 170.752 776.488 168.304 776.488 165.633C776.488 162.963 777.141 160.533 778.445 158.345C779.75 156.12 781.539 154.376 783.813 153.115C786.087 151.817 788.603 151.168 791.362 151.168C794.083 151.168 796.562 151.817 798.799 153.115C801.073 154.376 802.862 156.12 804.167 158.345C805.472 160.533 806.124 162.963 806.124 165.633C806.124 168.304 805.472 170.752 804.167 172.977C802.862 175.166 801.073 176.909 798.799 178.207C796.562 179.468 794.083 180.099 791.362 180.099ZM791.362 175.203C793.077 175.203 794.642 174.795 796.059 173.979C797.475 173.126 798.594 171.976 799.414 170.529C800.234 169.046 800.644 167.414 800.644 165.633C800.644 163.853 800.234 162.24 799.414 160.793C798.594 159.309 797.475 158.16 796.059 157.344C794.642 156.491 793.077 156.064 791.362 156.064C789.61 156.064 788.007 156.491 786.553 157.344C785.137 158.16 784.018 159.309 783.198 160.793C782.378 162.24 781.968 163.853 781.968 165.633C781.968 167.414 782.378 169.046 783.198 170.529C784.018 171.976 785.137 173.126 786.553 173.979C788.007 174.795 789.61 175.203 791.362 175.203Z" fill="#272727"/>
<path d="M770.034 179.598H764.722V156.732H752.756V161.795C752.756 165.764 752.533 169.009 752.085 171.531C751.675 174.053 750.799 176.075 749.457 177.596C748.115 179.079 746.121 179.821 743.474 179.821C742.766 179.821 742.002 179.728 741.182 179.543V174.647C741.853 174.758 742.449 174.814 742.971 174.814C744.164 174.814 745.059 174.443 745.655 173.701C746.289 172.959 746.736 171.642 746.997 169.751C747.258 167.822 747.388 165.003 747.388 161.294V151.725H770.034V179.598Z" fill="#272727"/>
<path d="M711.617 165.633C711.617 162.963 712.27 160.533 713.574 158.345C714.879 156.12 716.668 154.376 718.942 153.115C721.216 151.817 723.732 151.168 726.491 151.168C729.585 151.168 732.362 152.077 734.822 153.894C737.32 155.675 738.96 158.011 739.743 160.904H733.928C733.294 159.421 732.269 158.252 730.852 157.399C729.473 156.509 727.926 156.064 726.211 156.064C724.459 156.064 722.894 156.491 721.514 157.344C720.135 158.16 719.054 159.309 718.271 160.793C717.488 162.24 717.097 163.853 717.097 165.633C717.097 167.414 717.488 169.046 718.271 170.529C719.054 171.976 720.135 173.126 721.514 173.979C722.894 174.795 724.459 175.203 726.211 175.203C727.926 175.203 729.473 174.776 730.852 173.923C732.269 173.033 733.294 171.846 733.928 170.363H739.743C738.96 173.256 737.32 175.611 734.822 177.428C732.362 179.209 729.585 180.099 726.491 180.099C723.732 180.099 721.216 179.468 718.942 178.207C716.668 176.909 714.879 175.166 713.574 172.977C712.27 170.752 711.617 168.304 711.617 165.633Z" fill="#272727"/>
<path d="M679.459 151.725H684.771V172.421L699.309 151.725H705.18V179.543H699.868V158.846L685.33 179.543H679.459V151.725Z" fill="#272727"/>
<path d="M657.34 166.635L653.37 170.307V179.543H648.17V151.725H653.37V164.187L666.51 151.725H673.556L661.31 162.963L674.73 179.543H667.629L657.34 166.635Z" fill="#272727"/>
<path d="M620.87 179.543L612.762 169.028L604.598 179.543H598.168L609.351 165.411L598.615 151.725H605.213L612.874 161.684L620.367 151.725H626.965L616.285 165.244L627.468 179.543H620.87Z" fill="#272727"/>
<path d="M573.411 162.741C576.356 162.741 578.648 163.538 580.289 165.133C581.966 166.691 582.805 168.694 582.805 171.142C582.805 173.59 581.966 175.611 580.289 177.206C578.648 178.764 576.356 179.543 573.411 179.543H559.6V151.725H564.912V162.741H573.411ZM572.684 174.925C574.212 174.925 575.368 174.61 576.151 173.979C576.934 173.349 577.325 172.403 577.325 171.142C577.325 169.881 576.934 168.935 576.151 168.304C575.368 167.674 574.212 167.358 572.684 167.358H564.912V174.925H572.684ZM593.149 151.725V179.543H587.837V151.725H593.149Z" fill="#272727"/>
<path d="M550.633 151.725V179.543H545.321V168.137H530.783V179.543H525.471V151.725H530.783V163.13H545.321V151.725H550.633Z" fill="#272727"/>
<path d="M505.83 151.168C508.291 151.168 510.527 151.799 512.54 153.06C514.553 154.284 516.137 155.99 517.293 158.178C518.449 160.367 519.026 162.852 519.026 165.633C519.026 168.415 518.449 170.9 517.293 173.089C516.137 175.277 514.553 177.002 512.54 178.263C510.527 179.487 508.291 180.099 505.83 180.099C503.966 180.099 502.214 179.691 500.574 178.875C498.934 178.022 497.536 176.853 496.38 175.37V189.001H491.068V151.724H496.101V156.231C497.294 154.636 498.729 153.393 500.406 152.503C502.084 151.613 503.892 151.168 505.83 151.168ZM504.936 175.203C506.576 175.203 508.048 174.795 509.353 173.979C510.658 173.163 511.683 172.032 512.428 170.585C513.174 169.101 513.547 167.451 513.547 165.633C513.547 163.816 513.174 162.184 512.428 160.737C511.683 159.254 510.658 158.104 509.353 157.288C508.048 156.472 506.576 156.064 504.936 156.064C503.295 156.064 501.804 156.472 500.462 157.288C499.12 158.104 498.077 159.254 497.331 160.737C496.585 162.184 496.213 163.816 496.213 165.633C496.213 167.451 496.585 169.101 497.331 170.585C498.077 172.032 499.12 173.163 500.462 173.979C501.804 174.795 503.295 175.203 504.936 175.203Z" fill="#272727"/>
<path d="M469.899 180.099C467.141 180.099 464.624 179.468 462.35 178.207C460.076 176.909 458.287 175.166 456.982 172.977C455.678 170.752 455.025 168.304 455.025 165.633C455.025 162.963 455.678 160.533 456.982 158.345C458.287 156.12 460.076 154.376 462.35 153.115C464.624 151.817 467.141 151.168 469.899 151.168C472.62 151.168 475.099 151.817 477.336 153.115C479.61 154.376 481.399 156.12 482.704 158.345C484.009 160.533 484.661 162.963 484.661 165.633C484.661 168.304 484.009 170.752 482.704 172.977C481.399 175.166 479.61 176.909 477.336 178.207C475.099 179.468 472.62 180.099 469.899 180.099ZM469.899 175.203C471.614 175.203 473.18 174.795 474.596 173.979C476.013 173.126 477.131 171.976 477.951 170.529C478.771 169.046 479.181 167.414 479.181 165.633C479.181 163.853 478.771 162.24 477.951 160.793C477.131 159.309 476.013 158.16 474.596 157.344C473.18 156.491 471.614 156.064 469.899 156.064C468.147 156.064 466.544 156.491 465.09 157.344C463.674 158.16 462.555 159.309 461.735 160.793C460.915 162.24 460.505 163.853 460.505 165.633C460.505 167.414 460.915 169.046 461.735 170.529C462.555 171.976 463.674 173.126 465.09 173.979C466.544 174.795 468.147 175.203 469.899 175.203Z" fill="#272727"/>
<path d="M436.248 151.724C438.932 151.724 441.392 152.336 443.629 153.56C445.865 154.784 447.617 156.471 448.885 158.623C450.19 160.737 450.842 163.074 450.842 165.633C450.842 168.192 450.19 170.548 448.885 172.699C447.617 174.813 445.865 176.482 443.629 177.706C441.392 178.93 438.932 179.542 436.248 179.542H433.228V189H427.916V179.542H425.009C422.287 179.542 419.808 178.93 417.572 177.706C415.335 176.482 413.565 174.813 412.26 172.699C410.955 170.548 410.303 168.192 410.303 165.633C410.303 163.074 410.955 160.737 412.26 158.623C413.565 156.471 415.335 154.784 417.572 153.56C419.808 152.336 422.287 151.724 425.009 151.724H427.916V140.318H433.228V151.724H436.248ZM427.916 174.646V156.62H425.176C423.424 156.62 421.821 157.028 420.368 157.844C418.951 158.623 417.833 159.698 417.013 161.071C416.193 162.443 415.783 163.964 415.783 165.633C415.783 167.302 416.193 168.823 417.013 170.195C417.833 171.568 418.951 172.662 420.368 173.478C421.821 174.257 423.424 174.646 425.176 174.646H427.916ZM436.08 174.646C437.795 174.646 439.361 174.257 440.777 173.478C442.194 172.662 443.312 171.568 444.132 170.195C444.952 168.823 445.362 167.302 445.362 165.633C445.362 163.964 444.952 162.443 444.132 161.071C443.312 159.698 442.194 158.623 440.777 157.844C439.361 157.028 437.795 156.62 436.08 156.62H433.228V174.646H436.08Z" fill="#272727"/>
<path d="M378.523 165.633C378.523 162.963 379.176 160.533 380.481 158.345C381.785 156.12 383.575 154.376 385.848 153.115C388.122 151.817 390.639 151.168 393.397 151.168C396.491 151.168 399.268 152.077 401.729 153.894C404.226 155.675 405.866 158.011 406.649 160.904H400.834C400.2 159.421 399.175 158.252 397.759 157.399C396.379 156.509 394.832 156.064 393.118 156.064C391.366 156.064 389.8 156.491 388.421 157.344C387.041 158.16 385.96 159.309 385.177 160.793C384.395 162.24 384.003 163.853 384.003 165.633C384.003 167.414 384.395 169.046 385.177 170.529C385.96 171.976 387.041 173.126 388.421 173.979C389.8 174.795 391.366 175.203 393.118 175.203C394.832 175.203 396.379 174.776 397.759 173.923C399.175 173.033 400.2 171.846 400.834 170.363H406.649C405.866 173.256 404.226 175.611 401.729 177.428C399.268 179.209 396.491 180.099 393.397 180.099C390.639 180.099 388.122 179.468 385.848 178.207C383.575 176.909 381.785 175.166 380.481 172.977C379.176 170.752 378.523 168.304 378.523 165.633Z" fill="#272727"/>
<path d="M359.596 180.099C356.838 180.099 354.322 179.468 352.048 178.207C349.774 176.909 347.984 175.166 346.68 172.977C345.375 170.752 344.723 168.304 344.723 165.633C344.723 162.963 345.375 160.533 346.68 158.345C347.984 156.12 349.774 154.376 352.048 153.115C354.322 151.817 356.838 151.168 359.596 151.168C362.318 151.168 364.797 151.817 367.033 153.115C369.307 154.376 371.096 156.12 372.401 158.345C373.706 160.533 374.358 162.963 374.358 165.633C374.358 168.304 373.706 170.752 372.401 172.977C371.096 175.166 369.307 176.909 367.033 178.207C364.797 179.468 362.318 180.099 359.596 180.099ZM359.596 175.203C361.311 175.203 362.877 174.795 364.293 173.979C365.71 173.126 366.828 171.976 367.648 170.529C368.468 169.046 368.878 167.414 368.878 165.633C368.878 163.853 368.468 162.24 367.648 160.793C366.828 159.309 365.71 158.16 364.293 157.344C362.877 156.491 361.311 156.064 359.596 156.064C357.844 156.064 356.241 156.491 354.788 157.344C353.371 158.16 352.253 159.309 351.433 160.793C350.612 162.24 350.202 163.853 350.202 165.633C350.202 167.414 350.612 169.046 351.433 170.529C352.253 171.976 353.371 173.126 354.788 173.979C356.241 174.795 357.844 175.203 359.596 175.203Z" fill="#272727"/>
<path d="M325.945 151.724C328.629 151.724 331.089 152.336 333.326 153.56C335.563 154.784 337.315 156.471 338.582 158.623C339.887 160.737 340.539 163.074 340.539 165.633C340.539 168.192 339.887 170.548 338.582 172.699C337.315 174.813 335.563 176.482 333.326 177.706C331.089 178.93 328.629 179.542 325.945 179.542H322.926V189H317.614V179.542H314.706C311.985 179.542 309.506 178.93 307.269 177.706C305.032 176.482 303.262 174.813 301.957 172.699C300.652 170.548 300 168.192 300 165.633C300 163.074 300.652 160.737 301.957 158.623C303.262 156.471 305.032 154.784 307.269 153.56C309.506 152.336 311.985 151.724 314.706 151.724H317.614V140.318H322.926V151.724H325.945ZM317.614 174.646V156.62H314.874C313.122 156.62 311.519 157.028 310.065 157.844C308.648 158.623 307.53 159.698 306.71 161.071C305.89 162.443 305.48 163.964 305.48 165.633C305.48 167.302 305.89 168.823 306.71 170.195C307.53 171.568 308.648 172.662 310.065 173.478C311.519 174.257 313.122 174.646 314.874 174.646H317.614ZM325.777 174.646C327.492 174.646 329.058 174.257 330.474 173.478C331.891 172.662 333.009 171.568 333.829 170.195C334.649 168.823 335.059 167.302 335.059 165.633C335.059 163.964 334.649 162.443 333.829 161.071C333.009 159.698 331.891 158.623 330.474 157.844C329.058 157.028 327.492 156.62 325.777 156.62H322.926V174.646H325.777Z" fill="#272727"/>
<path d="M917 112.938V124.065H911.856V117.945H890.496V124.065H885.352V112.938H888.93C889.713 110.712 890.104 106.447 890.104 100.142V90.127H913.086V112.938H917ZM907.774 113.049V95.023H895.417V99.9746C895.417 105.538 894.988 109.896 894.13 113.049H907.774Z" fill="#272727"/>
<path d="M868.085 118.501C865.326 118.501 862.81 117.871 860.536 116.61C858.262 115.311 856.473 113.568 855.168 111.38C853.863 109.154 853.211 106.706 853.211 104.036C853.211 101.365 853.863 98.9358 855.168 96.7474C856.473 94.522 858.262 92.7787 860.536 91.5176C862.81 90.2194 865.326 89.5703 868.085 89.5703C870.806 89.5703 873.285 90.2194 875.521 91.5176C877.795 92.7787 879.585 94.522 880.889 96.7474C882.194 98.9358 882.846 101.365 882.846 104.036C882.846 106.706 882.194 109.154 880.889 111.38C879.585 113.568 877.795 115.311 875.521 116.61C873.285 117.871 870.806 118.501 868.085 118.501ZM868.085 113.605C869.799 113.605 871.365 113.197 872.782 112.381C874.198 111.528 875.316 110.378 876.137 108.932C876.957 107.448 877.367 105.816 877.367 104.036C877.367 102.255 876.957 100.642 876.137 99.1954C875.316 97.7118 874.198 96.562 872.782 95.746C871.365 94.8929 869.799 94.4663 868.085 94.4663C866.333 94.4663 864.73 94.8929 863.276 95.746C861.859 96.562 860.741 97.7118 859.921 99.1954C859.101 100.642 858.691 102.255 858.691 104.036C858.691 105.816 859.101 107.448 859.921 108.932C860.741 110.378 861.859 111.528 863.276 112.381C864.73 113.197 866.333 113.605 868.085 113.605Z" fill="#272727"/>
<path d="M844.876 103.758C847.635 105.13 849.014 107.244 849.014 110.1C849.014 112.4 848.175 114.292 846.498 115.775C844.82 117.222 842.509 117.945 839.564 117.945H825.529V90.127H839.564C842.36 90.127 844.559 90.8502 846.162 92.2968C847.803 93.7062 848.623 95.5051 848.623 97.6935C848.623 98.9917 848.306 100.179 847.672 101.254C847.076 102.293 846.144 103.127 844.876 103.758ZM838.949 101.699C840.328 101.699 841.372 101.384 842.081 100.754C842.789 100.123 843.143 99.1957 843.143 97.9717C843.143 95.7091 841.745 94.5779 838.949 94.5779H830.729V101.699H838.949ZM839.005 113.494C840.496 113.494 841.615 113.179 842.36 112.548C843.143 111.881 843.534 110.935 843.534 109.711C843.534 108.561 843.143 107.69 842.36 107.096C841.615 106.466 840.496 106.15 839.005 106.15H830.729V113.494H839.005Z" fill="#272727"/>
<path d="M816.569 90.1267V117.945H811.257V113.772C810.102 115.256 808.704 116.424 807.064 117.277C805.423 118.093 803.671 118.501 801.808 118.501C799.347 118.501 797.111 117.889 795.098 116.665C793.085 115.404 791.5 113.679 790.345 111.491C789.189 109.303 788.611 106.818 788.611 104.036C788.611 101.254 789.189 98.7689 790.345 96.5805C791.5 94.3921 793.085 92.686 795.098 91.462C797.111 90.2009 799.347 89.5703 801.808 89.5703C803.746 89.5703 805.554 90.0154 807.231 90.9056C808.909 91.7958 810.344 93.0383 811.537 94.6332V90.1267H816.569ZM802.702 113.605C804.342 113.605 805.834 113.197 807.176 112.381C808.518 111.565 809.561 110.434 810.307 108.987C811.052 107.504 811.425 105.853 811.425 104.036C811.425 102.218 811.052 100.586 810.307 99.1398C809.561 97.6561 808.518 96.5063 807.176 95.6903C805.834 94.8743 804.342 94.4663 802.702 94.4663C801.062 94.4663 799.59 94.8743 798.285 95.6903C796.98 96.5063 795.955 97.6561 795.209 99.1398C794.464 100.586 794.091 102.218 794.091 104.036C794.091 105.853 794.464 107.504 795.209 108.987C795.955 110.434 796.98 111.565 798.285 112.381C799.59 113.197 801.062 113.605 802.702 113.605Z" fill="#272727"/>
<path d="M764.914 109.154C765.398 110.786 766.293 111.992 767.598 112.771C768.94 113.55 770.692 113.939 772.854 113.939C774.867 113.939 776.488 113.587 777.718 112.882C778.949 112.14 779.564 111.194 779.564 110.045C779.564 109.043 779.116 108.19 778.222 107.485C777.327 106.743 775.799 106.373 773.637 106.373H768.772V101.81H773.413C775.351 101.81 776.731 101.458 777.551 100.753C778.408 100.049 778.837 99.1954 778.837 98.194C778.837 96.9329 778.259 95.9314 777.103 95.1896C775.985 94.4478 774.438 94.0769 772.462 94.0769C770.561 94.0769 768.977 94.4292 767.709 95.134C766.479 95.8387 765.678 96.9514 765.305 98.4721H760.049C760.534 95.6903 761.931 93.5205 764.243 91.9627C766.554 90.3678 769.294 89.5703 772.462 89.5703C775.966 89.5703 778.799 90.3307 780.962 91.8514C783.124 93.335 784.205 95.3009 784.205 97.7489C784.205 98.9729 783.869 100.123 783.198 101.198C782.527 102.237 781.521 103.071 780.179 103.702C783.273 104.926 784.82 107.022 784.82 109.989C784.82 112.548 783.701 114.607 781.465 116.165C779.265 117.722 776.265 118.501 772.462 118.501C769.033 118.501 766.125 117.667 763.739 115.998C761.354 114.329 759.974 112.047 759.602 109.154H764.914Z" fill="#272727"/>
<path d="M712.332 90.1273H717.644V110.824L732.182 90.1273H738.053V117.946H732.741V97.2488L718.203 117.946H712.332V90.1273ZM725.193 87.4011C722.285 87.4011 719.899 86.6407 718.035 85.12C716.172 83.5993 715.128 81.5593 714.904 79H719.489C719.676 80.4095 720.272 81.5222 721.279 82.3382C722.285 83.1171 723.59 83.5066 725.193 83.5066C726.796 83.5066 728.1 83.1171 729.107 82.3382C730.113 81.5222 730.71 80.4095 730.896 79H735.481C735.258 81.5593 734.214 83.5993 732.35 85.12C730.486 86.6407 728.1 87.4011 725.193 87.4011Z" fill="#272727"/>
<path d="M677.656 90.127H682.968V110.824L697.507 90.127H703.378V117.945H698.066V97.2484L683.527 117.945H677.656V90.127Z" fill="#272727"/>
<path d="M655.537 105.038L651.567 108.71V117.945H646.367V90.127H651.567V102.59L664.708 90.127H671.753L659.508 101.366L672.927 117.945H665.826L655.537 105.038Z" fill="#272727"/>
<path d="M612.344 104.036C612.344 101.365 612.996 98.9358 614.301 96.7474C615.606 94.522 617.395 92.7787 619.669 91.5176C621.943 90.2194 624.459 89.5703 627.217 89.5703C630.311 89.5703 633.089 90.479 635.549 92.2965C638.047 94.0769 639.687 96.4136 640.47 99.3067H634.654C634.021 97.8231 632.995 96.6547 631.579 95.8016C630.2 94.9114 628.653 94.4663 626.938 94.4663C625.186 94.4663 623.62 94.8929 622.241 95.746C620.862 96.562 619.781 97.7118 618.998 99.1954C618.215 100.642 617.824 102.255 617.824 104.036C617.824 105.816 618.215 107.448 618.998 108.932C619.781 110.378 620.862 111.528 622.241 112.381C623.62 113.197 625.186 113.605 626.938 113.605C628.653 113.605 630.2 113.179 631.579 112.326C632.995 111.435 634.021 110.249 634.654 108.765H640.47C639.687 111.658 638.047 114.013 635.549 115.831C633.089 117.611 630.311 118.501 627.217 118.501C624.459 118.501 621.943 117.871 619.669 116.61C617.395 115.311 615.606 113.568 614.301 111.38C612.996 109.154 612.344 106.706 612.344 104.036Z" fill="#272727"/>
<path d="M609.789 112.938V124.065H604.645V117.945H583.285V124.065H578.141V112.938H581.719C582.502 110.712 582.894 106.447 582.894 100.142V90.127H605.875V112.938H609.789ZM600.563 113.049V95.023H588.206V99.9746C588.206 105.538 587.777 109.896 586.919 113.049H600.563Z" fill="#272727"/>
<path d="M560.872 118.501C558.113 118.501 555.597 117.871 553.323 116.61C551.049 115.311 549.26 113.568 547.955 111.38C546.65 109.154 545.998 106.706 545.998 104.036C545.998 101.365 546.65 98.9358 547.955 96.7474C549.26 94.522 551.049 92.7787 553.323 91.5176C555.597 90.2194 558.113 89.5703 560.872 89.5703C563.593 89.5703 566.072 90.2194 568.309 91.5176C570.583 92.7787 572.372 94.522 573.677 96.7474C574.981 98.9358 575.634 101.365 575.634 104.036C575.634 106.706 574.981 109.154 573.677 111.38C572.372 113.568 570.583 115.311 568.309 116.61C566.072 117.871 563.593 118.501 560.872 118.501ZM560.872 113.605C562.586 113.605 564.152 113.197 565.569 112.381C566.985 111.528 568.104 110.378 568.924 108.932C569.744 107.448 570.154 105.816 570.154 104.036C570.154 102.255 569.744 100.642 568.924 99.1954C568.104 97.7118 566.985 96.562 565.569 95.746C564.152 94.8929 562.586 94.4663 560.872 94.4663C559.12 94.4663 557.517 94.8929 556.063 95.746C554.646 96.562 553.528 97.7118 552.708 99.1954C551.888 100.642 551.478 102.255 551.478 104.036C551.478 105.816 551.888 107.448 552.708 108.932C553.528 110.378 554.646 111.528 556.063 112.381C557.517 113.197 559.12 113.605 560.872 113.605Z" fill="#272727"/>
<path d="M528.602 89.5703C531.062 89.5703 533.299 90.2009 535.312 91.462C537.325 92.686 538.909 94.3921 540.065 96.5805C541.22 98.7689 541.798 101.254 541.798 104.036C541.798 106.818 541.22 109.303 540.065 111.491C538.909 113.679 537.325 115.404 535.312 116.665C533.299 117.889 531.062 118.501 528.602 118.501C526.738 118.501 524.986 118.093 523.346 117.277C521.705 116.424 520.307 115.256 519.152 113.772V127.403H513.84V90.1267H518.872V94.6332C520.065 93.0383 521.5 91.7958 523.178 90.9056C524.855 90.0154 526.663 89.5703 528.602 89.5703ZM527.707 113.605C529.347 113.605 530.82 113.197 532.124 112.381C533.429 111.565 534.454 110.434 535.2 108.987C535.945 107.504 536.318 105.853 536.318 104.036C536.318 102.218 535.945 100.586 535.2 99.1398C534.454 97.6561 533.429 96.5063 532.124 95.6903C530.82 94.8743 529.347 94.4663 527.707 94.4663C526.067 94.4663 524.576 94.8743 523.234 95.6903C521.892 96.5063 520.848 97.6561 520.102 99.1398C519.357 100.586 518.984 102.218 518.984 104.036C518.984 105.853 519.357 107.504 520.102 108.987C520.848 110.434 521.892 111.565 523.234 112.381C524.576 113.197 526.067 113.605 527.707 113.605Z" fill="#272727"/>
<path d="M492.671 118.501C489.912 118.501 487.396 117.871 485.122 116.61C482.848 115.311 481.059 113.568 479.754 111.38C478.449 109.154 477.797 106.706 477.797 104.036C477.797 101.365 478.449 98.9358 479.754 96.7474C481.059 94.522 482.848 92.7787 485.122 91.5176C487.396 90.2194 489.912 89.5703 492.671 89.5703C495.392 89.5703 497.871 90.2194 500.107 91.5176C502.381 92.7787 504.171 94.522 505.475 96.7474C506.78 98.9358 507.432 101.365 507.432 104.036C507.432 106.706 506.78 109.154 505.475 111.38C504.171 113.568 502.381 115.311 500.107 116.61C497.871 117.871 495.392 118.501 492.671 118.501ZM492.671 113.605C494.385 113.605 495.951 113.197 497.368 112.381C498.784 111.528 499.902 110.378 500.723 108.932C501.543 107.448 501.953 105.816 501.953 104.036C501.953 102.255 501.543 100.642 500.723 99.1954C499.902 97.7118 498.784 96.562 497.368 95.746C495.951 94.8929 494.385 94.4663 492.671 94.4663C490.919 94.4663 489.316 94.8929 487.862 95.746C486.445 96.562 485.327 97.7118 484.507 99.1954C483.687 100.642 483.277 102.255 483.277 104.036C483.277 105.816 483.687 107.448 484.507 108.932C485.327 110.378 486.445 111.528 487.862 112.381C489.316 113.197 490.919 113.605 492.671 113.605Z" fill="#272727"/>
<path d="M476.075 95.1342H461.816V117.945H456.504V90.127H476.075V95.1342Z" fill="#272727"/>
<path d="M435.867 89.5703C438.738 89.5703 441.235 90.1823 443.36 91.4063C445.522 92.6303 447.181 94.3736 448.337 96.6361C449.492 98.8616 450.07 101.477 450.07 104.481C450.07 105.26 450.051 105.835 450.014 106.206H427.088C427.461 108.357 428.468 110.137 430.108 111.547C431.785 112.919 433.724 113.605 435.923 113.605C439.539 113.605 442.111 112.289 443.64 109.655H449.119C448.225 112.251 446.566 114.384 444.143 116.053C441.72 117.685 438.98 118.501 435.923 118.501C433.202 118.501 430.742 117.889 428.542 116.665C426.343 115.404 424.628 113.679 423.398 111.491C422.168 109.266 421.553 106.781 421.553 104.036C421.553 101.291 422.168 98.8245 423.398 96.6361C424.628 94.4107 426.324 92.686 428.486 91.462C430.686 90.2009 433.146 89.5703 435.867 89.5703ZM435.755 94.2438C433.556 94.2438 431.655 94.93 430.052 96.3023C428.486 97.6747 427.517 99.4365 427.144 101.588H444.311C444.087 99.3623 443.174 97.582 441.571 96.2467C440.005 94.9114 438.067 94.2438 435.755 94.2438Z" fill="#272727"/>
<path d="M404.919 105.149L401.452 108.487V117.945H396.196V108.487L392.729 105.149L383.223 117.945H376.625L388.871 101.421L377.184 90.127H383.838L396.196 102.144V90.127H401.452V102.2L413.921 90.127H420.463L408.777 101.421L421.022 117.945H414.424L404.919 105.149Z" fill="#272727"/>
<path d="M346.146 90.127H351.459V110.824L365.997 90.127H371.868V117.945H366.556V97.2484L352.018 117.945H346.146V90.127Z" fill="#272727"/>
<path d="M336.624 79V117.946H331.032V101.143H308.666V117.946H303.074V79H308.666V95.8022H331.032V79H336.624Z" fill="#272727"/>
<path d="M55.2873 16.5102C61.8386 16.5102 66.6518 17.8916 69.727 20.6544C72.8467 23.3727 74.4065 26.9599 74.4065 31.4161C74.4065 34.3572 73.6266 37.0754 72.0668 39.5709C70.5515 42.0218 68.1894 44.0271 64.9806 45.5868C61.7717 47.1019 57.783 47.8594 53.0143 47.8594C49.7163 47.8594 46.4183 47.5029 43.1204 46.7899C39.867 46.0769 37.0147 45.0297 34.5635 43.6483L39.9115 32.0177C41.8725 33.1317 43.9226 33.9784 46.0618 34.5577C48.2456 35.137 50.3626 35.4267 52.4127 35.4267C54.2399 35.4267 55.7106 35.1147 56.8248 34.4909C57.9836 33.8224 58.5629 32.9089 58.5629 31.7503C58.5629 30.6363 58.0504 29.8119 57.0253 29.2771C56.0003 28.6978 54.1508 28.4082 51.4767 28.4082H37.906L40.2458 0H71.3314V11.898H53.2148L52.8806 16.5102H55.2873Z" fill="#272727"/>
<path d="M26.4102 0V46.7899H10.6335V11.898H2.61137V0H26.4102Z" fill="#272727"/>
<path d="M106.723 48.7856H138.28V196.106H106.723V48.7856Z" fill="#272727"/>
<path d="M169.836 170.468C211.348 170.468 245 136.82 245 95.3129C245 53.8058 211.348 20.1577 169.836 20.1577V49.0896C195.367 49.0896 216.065 69.7845 216.065 95.3129C216.065 120.841 195.367 141.536 169.836 141.536V170.468Z" fill="#272727"/>
<path d="M75.1643 225C33.6522 225 0 191.352 0 149.845C0 108.338 33.6522 74.6895 75.1643 74.6895V103.621C49.6328 103.621 28.9354 124.316 28.9354 149.845C28.9354 175.373 49.6328 196.068 75.1643 196.068V225Z" fill="#272727"/>
</svg>
