<svg width="836" height="37" viewBox="0 0 836 37" fill="none" xmlns="http://www.w3.org/2000/svg">
<path d="M-27.7745 5.171H-22.0895V31.7808H-27.7745V5.171Z" fill="#1A73E8"/>
<path d="M-33.4596 36.9998C-40.9377 36.9998 -47 30.9221 -47 23.4249C-47 15.9276 -40.9377 9.84991 -33.4596 9.84991V15.0758C-38.0589 15.0758 -41.7874 18.8138 -41.7874 23.4249C-41.7874 28.036 -38.0589 31.774 -33.4596 31.774V36.9998Z" fill="#1A73E8"/>
<path d="M-16.4049 0H-10.72V26.6098H-16.4049V0Z" fill="#1A73E8"/>
<path d="M-5.03517 10.3902H0.649754V37H-5.03517V10.3902Z" fill="#1A73E8"/>
<path d="M6.33345 0H12.0184V26.6098H6.33345V0Z" fill="#1A73E8"/>
<path d="M17.7032 10.3902H23.3881V37H17.7032V10.3902Z" fill="#1A73E8"/>
<path d="M29.073 0H34.7579V26.6098H29.073V0Z" fill="#1A73E8"/>
<path d="M40.4427 5.17094H46.1277V31.7808H40.4427V5.17094Z" fill="#1A73E8"/>
<path d="M51.8127 0H57.4976V26.6098H51.8127V0Z" fill="#1A73E8"/>
<path d="M63.1824 10.3902H68.8673V37H63.1824V10.3902Z" fill="#1A73E8"/>
<path d="M74.5522 0H80.2371V26.6098H74.5522V0Z" fill="#1A73E8"/>
<path d="M85.922 5.17094H91.6069V31.7808H85.922V5.17094Z" fill="#1A73E8"/>
<path d="M97.2914 0H102.976V26.6098H97.2914V0Z" fill="#1A73E8"/>
<path d="M108.661 10.3902H114.346V37H108.661V10.3902Z" fill="#1A73E8"/>
<path d="M120.031 0H125.716V26.6098H120.031V0Z" fill="#1A73E8"/>
<path d="M131.402 10.3902H137.087V37H131.402V10.3902Z" fill="#1A73E8"/>
<path d="M142.77 0H148.455V26.6098H142.77V0Z" fill="#1A73E8"/>
<path d="M154.14 10.3902H159.825V37H154.14V10.3902Z" fill="#1A73E8"/>
<path d="M165.51 0H171.195V26.6098H165.51V0Z" fill="#1A73E8"/>
<path d="M176.88 5.17094H182.565V31.7808H176.88V5.17094Z" fill="#1A73E8"/>
<path d="M188.25 0H193.934V26.6098H188.25V0Z" fill="#1A73E8"/>
<path d="M199.619 10.3902H205.304V37H199.619V10.3902Z" fill="#1A73E8"/>
<path d="M210.989 0H216.674V26.6098H210.989V0Z" fill="#1A73E8"/>
<path d="M222.359 5.17094H228.044V31.7808H222.359V5.17094Z" fill="#1A73E8"/>
<path d="M233.728 0H239.413V26.6098H233.728V0Z" fill="#1A73E8"/>
<path d="M245.098 10.3902H250.783V37H245.098V10.3902Z" fill="#1A73E8"/>
<path d="M256.468 0H262.153V26.6098H256.468V0Z" fill="#1A73E8"/>
<path d="M267.855 5.171H273.54V31.7808H267.855V5.171Z" fill="#1A73E8"/>
<path d="M279.224 0H284.909V26.6098H279.224V0Z" fill="#1A73E8"/>
<path d="M290.594 10.3902H296.279V37H290.594V10.3902Z" fill="#1A73E8"/>
<path d="M301.963 0H307.648V26.6098H301.963V0Z" fill="#1A73E8"/>
<path d="M313.332 10.3902H319.017V37H313.332V10.3902Z" fill="#1A73E8"/>
<path d="M324.702 0H330.387V26.6098H324.702V0Z" fill="#1A73E8"/>
<path d="M336.072 5.17094H341.757V31.7808H336.072V5.17094Z" fill="#1A73E8"/>
<path d="M347.442 0H353.127V26.6098H347.442V0Z" fill="#1A73E8"/>
<path d="M358.812 10.3902H364.497V37H358.812V10.3902Z" fill="#1A73E8"/>
<path d="M370.181 0H375.866V26.6098H370.181V0Z" fill="#1A73E8"/>
<path d="M381.551 5.17094H387.236V31.7808H381.551V5.17094Z" fill="#1A73E8"/>
<path d="M392.921 0H398.605V26.6098H392.921V0Z" fill="#1A73E8"/>
<path d="M404.29 10.3902H409.975V37H404.29V10.3902Z" fill="#1A73E8"/>
<path d="M415.66 0H421.345V26.6098H415.66V0Z" fill="#1A73E8"/>
<path d="M427.031 10.3902H432.716V37H427.031V10.3902Z" fill="#1A73E8"/>
<path d="M438.4 0H444.084V26.6098H438.4V0Z" fill="#1A73E8"/>
<path d="M449.769 10.3902H455.454V37H449.769V10.3902Z" fill="#1A73E8"/>
<path d="M461.139 0H466.824V26.6098H461.139V0Z" fill="#1A73E8"/>
<path d="M472.509 5.17094H478.194V31.7808H472.509V5.17094Z" fill="#1A73E8"/>
<path d="M483.879 0H489.564V26.6098H483.879V0Z" fill="#1A73E8"/>
<path d="M495.248 10.3902H500.933V37H495.248V10.3902Z" fill="#1A73E8"/>
<path d="M506.618 0H512.303V26.6098H506.618V0Z" fill="#1A73E8"/>
<path d="M517.988 5.17094H523.673V31.7808H517.988V5.17094Z" fill="#1A73E8"/>
<path d="M529.357 0H535.042V26.6098H529.357V0Z" fill="#1A73E8"/>
<path d="M540.727 10.3902H546.412V37H540.727V10.3902Z" fill="#1A73E8"/>
<path d="M552.097 0H557.782V26.6098H552.097V0Z" fill="#1A73E8"/>
<path d="M563.475 5.171H569.16V31.7808H563.475V5.171Z" fill="#1A73E8"/>
<path d="M574.845 0H580.53V26.6098H574.845V0Z" fill="#1A73E8"/>
<path d="M586.215 10.3902H591.9V37H586.215V10.3902Z" fill="#1A73E8"/>
<path d="M597.583 0H603.268V26.6098H597.583V0Z" fill="#1A73E8"/>
<path d="M608.953 10.3902H614.638V37H608.953V10.3902Z" fill="#1A73E8"/>
<path d="M620.323 0H626.008V26.6098H620.323V0Z" fill="#1A73E8"/>
<path d="M631.693 5.17094H637.377V31.7808H631.693V5.17094Z" fill="#1A73E8"/>
<path d="M643.062 0H648.747V26.6098H643.062V0Z" fill="#1A73E8"/>
<path d="M654.432 10.3902H660.117V37H654.432V10.3902Z" fill="#1A73E8"/>
<path d="M665.802 0H671.487V26.6098H665.802V0Z" fill="#1A73E8"/>
<path d="M677.172 5.17094H682.857V31.7808H677.172V5.17094Z" fill="#1A73E8"/>
<path d="M688.541 0H694.226V26.6098H688.541V0Z" fill="#1A73E8"/>
<path d="M699.911 10.3902H705.596V37H699.911V10.3902Z" fill="#1A73E8"/>
<path d="M711.281 0H716.966V26.6098H711.281V0Z" fill="#1A73E8"/>
<path d="M722.651 10.3902H728.336V37H722.651V10.3902Z" fill="#1A73E8"/>
<path d="M734.02 0H739.705V26.6098H734.02V0Z" fill="#1A73E8"/>
<path d="M745.39 10.3902H751.075V37H745.39V10.3902Z" fill="#1A73E8"/>
<path d="M756.76 0H762.445V26.6098H756.76V0Z" fill="#1A73E8"/>
<path d="M768.129 5.17094H773.814V31.7808H768.129V5.17094Z" fill="#1A73E8"/>
<path d="M779.499 0H785.184V26.6098H779.499V0Z" fill="#1A73E8"/>
<path d="M790.869 10.3902H796.554V37H790.869V10.3902Z" fill="#1A73E8"/>
<path d="M802.239 0H807.924V26.6098H802.239V0Z" fill="#1A73E8"/>
<path d="M813.609 5.17094H819.294V31.7808H813.609V5.17094Z" fill="#1A73E8"/>
<path d="M824.978 0H830.663V26.6098H824.978V0Z" fill="#1A73E8"/>
<path d="M836.348 10.3902H842.033V37H836.348V10.3902Z" fill="#1A73E8"/>
<path d="M847.718 0H853.403V26.6098H847.718V0Z" fill="#1A73E8"/>
<path d="M859.09 5.17094H864.775V31.7808H859.09V5.17094Z" fill="#1A73E8"/>
<path d="M870.46 27.1499C877.938 27.1499 884 21.0722 884 13.575C884 6.07772 877.938 0 870.46 0V5.22585C875.059 5.22585 878.787 8.96387 878.787 13.575C878.787 18.186 875.059 21.9241 870.46 21.9241V27.1499Z" fill="#1A73E8"/>
</svg>
