<svg width="836" height="37" viewBox="0 0 836 37" fill="none" xmlns="http://www.w3.org/2000/svg">
<path d="M-28.7538 5.171H-23.0628V31.7808H-28.7538V5.171Z" fill="#1A73E8"/>
<path d="M-34.445 36.9998C-41.9312 36.9998 -48 30.9221 -48 23.4249C-48 15.9276 -41.9312 9.84991 -34.445 9.84991V15.0758C-39.0493 15.0758 -42.7818 18.8138 -42.7818 23.4249C-42.7818 28.036 -39.0493 31.774 -34.445 31.774V36.9998Z" fill="#1A73E8"/>
<path d="M-17.3721 0H-11.681V26.6098H-17.3721V0Z" fill="#1A73E8"/>
<path d="M-5.9901 10.3902H-0.299068V37H-5.9901V10.3902Z" fill="#1A73E8"/>
<path d="M5.39073 0H11.0818V26.6098H5.39073V0Z" fill="#1A73E8"/>
<path d="M16.7727 10.3902H22.4637V37H16.7727V10.3902Z" fill="#1A73E8"/>
<path d="M28.1547 0H33.8457V26.6098H28.1547V0Z" fill="#1A73E8"/>
<path d="M39.5367 5.17094H45.2277V31.7808H39.5367V5.17094Z" fill="#1A73E8"/>
<path d="M50.9188 0H56.6098V26.6098H50.9188V0Z" fill="#1A73E8"/>
<path d="M62.3008 10.3902H67.9918V37H62.3008V10.3902Z" fill="#1A73E8"/>
<path d="M73.6827 0H79.3738V26.6098H73.6827V0Z" fill="#1A73E8"/>
<path d="M85.0647 5.17094H90.7557V31.7808H85.0647V5.17094Z" fill="#1A73E8"/>
<path d="M96.4464 0H102.137V26.6098H96.4464V0Z" fill="#1A73E8"/>
<path d="M107.828 10.3902H113.519V37H107.828V10.3902Z" fill="#1A73E8"/>
<path d="M119.21 0H124.901V26.6098H119.21V0Z" fill="#1A73E8"/>
<path d="M130.593 10.3902H136.284V37H130.593V10.3902Z" fill="#1A73E8"/>
<path d="M141.974 0H147.665V26.6098H141.974V0Z" fill="#1A73E8"/>
<path d="M153.356 10.3902H159.047V37H153.356V10.3902Z" fill="#1A73E8"/>
<path d="M164.738 0H170.429V26.6098H164.738V0Z" fill="#1A73E8"/>
<path d="M176.12 5.17094H181.811V31.7808H176.12V5.17094Z" fill="#1A73E8"/>
<path d="M187.502 0H193.193V26.6098H187.502V0Z" fill="#1A73E8"/>
<path d="M198.884 10.3902H204.575V37H198.884V10.3902Z" fill="#1A73E8"/>
<path d="M210.266 0H215.957V26.6098H210.266V0Z" fill="#1A73E8"/>
<path d="M221.648 5.17094H227.339V31.7808H221.648V5.17094Z" fill="#1A73E8"/>
<path d="M233.03 0H238.721V26.6098H233.03V0Z" fill="#1A73E8"/>
<path d="M244.412 10.3902H250.103V37H244.412V10.3902Z" fill="#1A73E8"/>
<path d="M255.794 0H261.485V26.6098H255.794V0Z" fill="#1A73E8"/>
<path d="M267.193 5.171H272.884V31.7808H267.193V5.171Z" fill="#1A73E8"/>
<path d="M278.575 0H284.266V26.6098H278.575V0Z" fill="#1A73E8"/>
<path d="M289.957 10.3902H295.648V37H289.957V10.3902Z" fill="#1A73E8"/>
<path d="M301.337 0H307.028V26.6098H301.337V0Z" fill="#1A73E8"/>
<path d="M312.719 10.3902H318.41V37H312.719V10.3902Z" fill="#1A73E8"/>
<path d="M324.101 0H329.792V26.6098H324.101V0Z" fill="#1A73E8"/>
<path d="M335.483 5.17094H341.174V31.7808H335.483V5.17094Z" fill="#1A73E8"/>
<path d="M346.866 0H352.557V26.6098H346.866V0Z" fill="#1A73E8"/>
<path d="M358.247 10.3902H363.939V37H358.247V10.3902Z" fill="#1A73E8"/>
<path d="M369.629 0H375.32V26.6098H369.629V0Z" fill="#1A73E8"/>
<path d="M381.011 5.17094H386.702V31.7808H381.011V5.17094Z" fill="#1A73E8"/>
<path d="M392.393 0H398.084V26.6098H392.393V0Z" fill="#1A73E8"/>
<path d="M403.775 10.3902H409.466V37H403.775V10.3902Z" fill="#1A73E8"/>
<path d="M415.157 0H420.848V26.6098H415.157V0Z" fill="#1A73E8"/>
<path d="M426.54 10.3902H432.231V37H426.54V10.3902Z" fill="#1A73E8"/>
<path d="M437.921 0H443.612V26.6098H437.921V0Z" fill="#1A73E8"/>
<path d="M449.303 10.3902H454.994V37H449.303V10.3902Z" fill="#1A73E8"/>
<path d="M460.685 0H466.376V26.6098H460.685V0Z" fill="#1A73E8"/>
<path d="M472.067 5.17094H477.758V31.7808H472.067V5.17094Z" fill="#1A73E8"/>
<path d="M483.449 0H489.14V26.6098H483.449V0Z" fill="#1A73E8"/>
<path d="M494.831 10.3902H500.522V37H494.831V10.3902Z" fill="#1A73E8"/>
<path d="M506.213 0H511.904V26.6098H506.213V0Z" fill="#1A73E8"/>
<path d="M517.595 5.17094H523.286V31.7808H517.595V5.17094Z" fill="#1A73E8"/>
<path d="M528.976 0H534.667V26.6098H528.976V0Z" fill="#1A73E8"/>
<path d="M540.358 10.3902H546.049V37H540.358V10.3902Z" fill="#1A73E8"/>
<path d="M551.74 0H557.432V26.6098H551.74V0Z" fill="#1A73E8"/>
<path d="M563.131 5.171H568.822V31.7808H563.131V5.171Z" fill="#1A73E8"/>
<path d="M574.513 0H580.204V26.6098H574.513V0Z" fill="#1A73E8"/>
<path d="M585.895 10.3902H591.586V37H585.895V10.3902Z" fill="#1A73E8"/>
<path d="M597.276 0H602.967V26.6098H597.276V0Z" fill="#1A73E8"/>
<path d="M608.658 10.3902H614.349V37H608.658V10.3902Z" fill="#1A73E8"/>
<path d="M620.04 0H625.731V26.6098H620.04V0Z" fill="#1A73E8"/>
<path d="M631.422 5.17094H637.113V31.7808H631.422V5.17094Z" fill="#1A73E8"/>
<path d="M642.804 0H648.495V26.6098H642.804V0Z" fill="#1A73E8"/>
<path d="M654.186 10.3902H659.877V37H654.186V10.3902Z" fill="#1A73E8"/>
<path d="M665.568 0H671.259V26.6098H665.568V0Z" fill="#1A73E8"/>
<path d="M676.95 5.17094H682.641V31.7808H676.95V5.17094Z" fill="#1A73E8"/>
<path d="M688.331 0H694.022V26.6098H688.331V0Z" fill="#1A73E8"/>
<path d="M699.713 10.3902H705.404V37H699.713V10.3902Z" fill="#1A73E8"/>
<path d="M711.095 0H716.786V26.6098H711.095V0Z" fill="#1A73E8"/>
<path d="M722.478 10.3902H728.169V37H722.478V10.3902Z" fill="#1A73E8"/>
<path d="M733.859 0H739.55V26.6098H733.859V0Z" fill="#1A73E8"/>
<path d="M745.241 10.3902H750.932V37H745.241V10.3902Z" fill="#1A73E8"/>
<path d="M756.623 0H762.314V26.6098H756.623V0Z" fill="#1A73E8"/>
<path d="M768.005 5.17094H773.696V31.7808H768.005V5.17094Z" fill="#1A73E8"/>
<path d="M779.387 0H785.078V26.6098H779.387V0Z" fill="#1A73E8"/>
<path d="M790.769 10.3902H796.46V37H790.769V10.3902Z" fill="#1A73E8"/>
<path d="M802.151 0H807.842V26.6098H802.151V0Z" fill="#1A73E8"/>
<path d="M813.533 5.17094H819.224V31.7808H813.533V5.17094Z" fill="#1A73E8"/>
<path d="M824.915 0H830.606V26.6098H824.915V0Z" fill="#1A73E8"/>
<path d="M836.297 10.3902H841.988V37H836.297V10.3902Z" fill="#1A73E8"/>
<path d="M847.679 0H853.37V26.6098H847.679V0Z" fill="#1A73E8"/>
<path d="M859.063 5.17094H864.754V31.7808H859.063V5.17094Z" fill="#1A73E8"/>
<path d="M870.445 27.1499C877.931 27.1499 884 21.0722 884 13.575C884 6.07772 877.931 0 870.445 0V5.22585C875.049 5.22585 878.782 8.96387 878.782 13.575C878.782 18.186 875.049 21.9241 870.445 21.9241V27.1499Z" fill="#1A73E8"/>
</svg>
